<?xml version="1.0" standalone="no"?>
<!DOCTYPE svg PUBLIC "-//W3C//DTD SVG 20010904//EN"
 "http://www.w3.org/TR/2001/REC-SVG-20010904/DTD/svg10.dtd">
<svg version="1.0" xmlns="http://www.w3.org/2000/svg"
 width="180.000000pt" height="180.000000pt" viewBox="0 0 180.000000 180.000000"
 preserveAspectRatio="xMidYMid meet">
<metadata>
Created by potrace 1.11, written by Peter Selinger 2001-2013
</metadata>
<g transform="translate(0.000000,180.000000) scale(0.100000,-0.100000)"
fill="#000000" stroke="none">
<path d="M755 1644 c-192 -41 -311 -114 -459 -284 -50 -57 -116 -201 -142
-310 -14 -58 -11 -246 5 -312 9 -36 19 -70 23 -74 5 -4 8 -15 8 -25 0 -16 27
-72 72 -150 33 -57 141 -168 202 -207 23 -15 44 -31 48 -37 5 -7 8 -7 8 0 0 6
4 5 8 -1 6 -10 67 -40 90 -45 4 0 15 -5 25 -11 10 -5 28 -12 40 -14 38 -9 52
-12 52 -14 0 -6 55 -11 148 -16 61 -2 106 -1 103 4 -3 5 5 7 18 5 13 -3 34 0
46 7 12 7 20 7 16 2 -4 -6 2 -8 14 -5 11 3 17 10 13 16 -3 5 -2 7 4 4 16 -10
98 18 95 32 -1 7 2 10 8 6 15 -9 102 33 95 46 -4 5 -3 8 2 7 14 -4 53 13 53
23 0 5 6 9 13 9 18 0 68 56 59 66 -4 4 -2 4 4 1 14 -8 57 41 48 55 -4 6 -3 8
3 5 6 -4 21 5 33 18 13 14 19 25 14 25 -5 0 -4 4 1 8 20 13 55 83 49 94 -4 7
-2 8 4 4 11 -7 14 -3 16 27 1 6 7 18 14 26 8 8 11 22 9 33 -3 10 -1 16 4 12 9
-5 10 -1 13 46 1 14 5 30 9 37 12 19 20 241 9 224 -7 -9 -8 2 -4 34 3 32 1 46
-6 41 -6 -4 -8 1 -5 14 3 12 0 20 -6 20 -7 0 -9 5 -6 10 8 13 -16 83 -32 93
-7 4 -10 14 -7 21 3 7 -2 20 -10 29 -8 8 -12 17 -9 21 4 3 1 6 -6 6 -7 0 -9 5
-6 10 3 6 1 10 -4 10 -6 0 -11 7 -11 15 0 8 -5 15 -12 15 -6 0 -9 3 -5 6 5 6
-22 40 -73 93 -14 14 -24 29 -22 33 1 4 -4 8 -11 8 -7 0 -20 8 -28 18 -9 9
-26 24 -39 32 -12 8 -29 21 -36 28 -8 7 -14 10 -14 6 0 -4 -8 0 -17 8 -34 28
-151 75 -237 94 -50 12 -235 10 -291 -2z"/>
</g>
</svg>
